<svg viewBox="0 0 55 48" version="1.1" xmlns="http://www.w3.org/2000/svg" xmlns:xlink="http://www.w3.org/1999/xlink">
    <!-- Generator: Sketch 49.2 (51160) - http://www.bohemiancoding.com/sketch -->
    <title>Feedly</title>
    <desc>Created with Sketch.</desc>
    <defs></defs>
    <g id="Page-1" stroke="none" stroke-width="1" fill="none" fill-rule="evenodd">
        <g id="Social-Icons---Isolated" transform="translate(-497.000000, -951.000000)" fill="#2BB24C">
            <path d="M527.838947,979.030455 C525.19549,981.645351 522.543461,984.256851 519.915433,986.888726 C519.178282,987.785262 517.87884,987.501699 516.867401,987.418497 C515.891961,986.797035 515.134239,985.878426 514.350802,985.041319 C513.827939,984.550602 514.316516,983.908764 514.719377,983.540301 C517.366263,980.928801 520.00972,978.317302 522.642891,975.692218 C523.122896,975.228668 523.556615,974.695501 524.137764,974.344018 C524.720628,974.096112 525.145775,974.683615 525.533208,975.013024 C526.412646,975.946915 527.415514,976.76874 528.217808,977.768853 C528.570955,978.215422 528.161236,978.71463 527.838947,979.030455 M528.116664,991.386687 C527.376085,992.211907 526.602934,993.021846 525.733781,993.711227 C524.934916,993.901402 524.086335,993.857254 523.278898,993.741791 C522.502318,993.352953 521.977741,992.60584 521.341734,992.030223 C520.889158,991.593841 520.18115,990.938419 520.764014,990.308467 C521.748024,989.225153 522.800607,988.19108 523.88919,987.206249 C524.293766,986.868351 524.898915,987.036451 525.226347,987.403216 C526.157215,988.294657 527.072653,989.201381 527.970948,990.12848 C528.324095,990.439212 528.517811,991.028412 528.116664,991.386687 M513.509079,980.538265 C512.742785,981.441593 511.395342,981.203875 510.358188,981.044264 C509.444464,980.319225 508.607883,979.478723 507.870733,978.580489 C507.443871,978.08298 507.990734,977.565094 508.328452,977.213612 C512.970787,972.635846 517.59598,968.037704 522.229744,963.453147 C522.852036,962.85206 523.416042,962.184752 524.115478,961.670263 C524.717199,961.371418 525.181776,962.016652 525.582923,962.359645 C526.434932,963.259577 527.400085,964.057629 528.181808,965.020386 C528.584669,965.49752 528.142379,966.051063 527.789232,966.392358 C523.025181,971.102566 518.257701,975.812775 513.509079,980.538265 M548.744886,972.600188 C542.468818,966.38217 536.191037,960.167547 529.920112,953.94783 C529.002959,953.054691 528.140664,952.0359 526.930366,951.524807 C525.728639,950.959378 524.334909,950.877875 523.044038,951.15125 C521.914312,951.407646 520.894301,952.020618 520.078292,952.828859 C513.022216,959.81946 505.964426,966.81176 498.904922,973.800663 C498.092342,974.60381 497.458049,975.607319 497.199189,976.722894 C496.619755,978.73161 497.34662,980.983137 498.832921,982.42982 C503.807832,987.359068 508.787885,992.283223 513.761081,997.215867 C514.871951,998.338235 516.438825,998.991959 518.027984,998.973281 C522.097742,998.997053 526.165786,998.969885 530.23383,998.986865 C532.064707,999.102328 533.916155,998.453698 535.212169,997.15474 C539.720789,992.702625 544.215694,988.23353 548.7226,983.778019 C549.456322,983.041094 550.251759,982.350014 550.850051,981.49423 C551.947206,979.928689 552.128922,977.818094 551.487772,976.0437 C550.987195,974.619092 549.783754,973.635959 548.744886,972.600188" id="Feedly" style="fill: rgb(255, 255, 255);"></path>
        </g>
    </g>
</svg>